<?xml version="1.0" encoding="utf-8"?>
<svg version="1.1" id="Layer_1" x="0px" y="0px" width="63.596px" height="63.425px" viewBox="0 0 63.596 63.425" enable-background="new 0 0 63.596 63.425" xmlns="http://www.w3.org/2000/svg" xmlns:bx="https://boxy-svg.com">
  <path transform="matrix(0.092265, -0.037744, 0.037744, 0.092265, -28.027435, 6.900055)" d="M 421.124 135.69 L 500.876 135.69 L 526.267 223.155 A 244.709 244.709 0 0 1 581.617 246.082 L 661.418 202.188 L 717.812 258.582 L 673.918 338.383 A 244.709 244.709 0 0 1 696.845 393.733 L 784.31 419.124 L 784.31 498.876 L 696.845 524.267 A 244.709 244.709 0 0 1 673.918 579.617 L 717.812 659.418 L 661.418 715.812 L 581.617 671.918 A 244.709 244.709 0 0 1 526.267 694.845 L 500.876 782.31 L 421.124 782.31 L 395.733 694.845 A 244.709 244.709 0 0 1 340.383 671.918 L 260.582 715.812 L 204.188 659.418 L 248.082 579.617 A 244.709 244.709 0 0 1 225.155 524.267 L 137.69 498.876 L 137.69 419.124 L 225.155 393.733 A 244.709 244.709 0 0 1 248.082 338.383 L 204.188 258.582 L 260.582 202.188 L 340.383 246.082 A 244.709 244.709 0 0 1 395.733 223.155 Z M 461 355.998 A 103.002 103.002 0 0 0 461 562.002 A 103.002 103.002 0 0 0 461 355.998" style="fill: rgb(85, 85, 85);" bx:shape="cog 461 459 103.002 244.709 323.31 0.375 8 1@4f3ed4b0"/>
  <text x="23.987" y="86.346" style="white-space: pre; fill: rgb(51, 51, 51); font-family: sans-serif; font-size: 24px;">Ты — пидор.</text>
</svg>